<svg xmlns="http://www.w3.org/2000/svg" viewBox="0 0 64 64" fill="none">
  <defs>
    <linearGradient id="g" x1="10" y1="10" x2="54" y2="54" gradientUnits="userSpaceOnUse">
      <stop offset="0" stop-color="#0f766e"/>
      <stop offset="1" stop-color="#5eead4"/>
    </linearGradient>
  </defs>
  <!-- Orbital ring -->
  <ellipse cx="30" cy="18" rx="14" ry="9" stroke="#0f766e" stroke-width="1.1" fill="none" opacity="0.38" transform="rotate(-15 30 18)"/>
  <!-- Connections -->
  <line x1="12" y1="22" x2="30" y2="18" stroke="#0f766e" stroke-width="1" opacity="0.3"/>
  <line x1="30" y1="18" x2="50" y2="20" stroke="#0f766e" stroke-width="1" opacity="0.3"/>
  <line x1="30" y1="18" x2="28" y2="32" stroke="#0f766e" stroke-width="1" opacity="0.3"/>
  <line x1="28" y1="32" x2="31" y2="44" stroke="#0f766e" stroke-width="1" opacity="0.25"/>
  <line x1="31" y1="44" x2="30" y2="54" stroke="#0f766e" stroke-width="1" opacity="0.2"/>
  <line x1="12" y1="22" x2="28" y2="32" stroke="#5eead4" stroke-width="0.6" opacity="0.15"/>
  <line x1="50" y1="20" x2="28" y2="32" stroke="#5eead4" stroke-width="0.6" opacity="0.15"/>
  <!-- Nodes -->
  <circle cx="12" cy="22" r="3.5" fill="url(#g)" opacity="0.65"/>
  <circle cx="30" cy="18" r="7" fill="url(#g)"/>
  <circle cx="50" cy="20" r="4" fill="url(#g)" opacity="0.7"/>
  <circle cx="28" cy="32" r="4.5" fill="url(#g)" opacity="0.8"/>
  <circle cx="31" cy="44" r="3.5" fill="url(#g)" opacity="0.6"/>
  <circle cx="30" cy="54" r="3" fill="url(#g)" opacity="0.45"/>
  <!-- Highlight -->
  <circle cx="28.5" cy="16.5" r="2.5" fill="#fff" opacity="0.2"/>
</svg>
